<svg preserveAspectRatio="xMidYMid meet" viewBox="5.62 2.248995983935743 128.698 130.4417670682731" xmlns="http://www.w3.org/2000/svg" version="1.0" style="max-height: 500px" width="128.698" height="130.4417670682731">

<g stroke="none" fill="#9ca3af" transform="translate(0.000000,140.000000) scale(0.100000,-0.100000)">
<path d="M588 1312 c-14 -6 11 -51 154 -275 93 -147 171 -267 173 -265 1 2 46&#10;88 100 192 l98 189 -39 34 c-54 47 -187 109 -258 122 -65 12 -201 14 -228 3z"/>
<path d="M430 1259 c-62 -31 -103 -61 -155 -113 -62 -63 -135 -173 -135 -205&#10;0 -8 92 -11 320 -11 176 0 320 2 320 4 0 2 -51 85 -113 183 -77 121 -120 179&#10;-133 181 -11 2 -58 -16 -104 -39z"/>
<path d="M980 853 c-80 -152 -146 -282 -148 -290 -3 -11 37 -13 216 -13 250 0&#10;226 -10 242 101 13 88 -2 199 -36 287 -26 66 -100 182 -119 189 -6 2 -75 -121&#10;-155 -274z"/>
<path d="M1590 1024 c0 -3 50 -88 110 -189 l110 -183 0 -116 0 -116 65 0 65 0&#10;0 116 0 116 110 183 c61 101 110 186 110 189 0 3 -33 6 -72 6 l-73 0 -63 -110&#10;c-35 -60 -68 -112 -72 -115 -5 -3 -39 46 -76 110 l-68 115 -73 0 c-40 0 -73&#10;-3 -73 -6z"/>
<path d="M3470 975 l0 -55 90 0 90 0 0 -250 0 -250 70 0 70 0 0 250 0 250 90&#10;0 90 0 0 55 0 55 -250 0 -250 0 0 -55z"/>
<path d="M4460 725 l0 -305 60 0 c58 0 60 1 60 27 l0 26 23 -20 c36 -33 63&#10;-43 119 -43 70 0 116 25 153 85 28 45 30 55 30 144 0 80 -4 103 -22 138 -54&#10;100 -167 129 -258 67 l-35 -23 0 104 0 105 -65 0 -65 0 0 -305z m295 25 c24&#10;-25 30 -41 33 -90 7 -98 -34 -160 -105 -160 -93 0 -137 166 -67 250 21 25 33&#10;30 68 30 34 0 48 -6 71 -30z"/>
<path d="M125 898 c-45 -129 -28 -315 41 -448 70 -133 47 -150 232 170 89 154&#10;162 283 162 285 0 3 -97 5 -215 5 -164 0 -217 -3 -220 -12z"/>
<path d="M2288 871 c-101 -20 -168 -110 -168 -226 0 -104 40 -173 124 -217 32&#10;-16 54 -19 117 -16 67 3 83 7 120 33 63 45 94 111 93 200 -2 118 -64 203 -166&#10;225 -54 11 -65 11 -120 1z m134 -119 c34 -33 40 -140 13 -205 -4 -10 -20 -24&#10;-36 -32 -44 -23 -85 -19 -121 14 -29 26 -33 35 -36 97 -4 87 17 134 68 150 39&#10;13 85 3 112 -24z"/>
<path d="M3386 870 c-16 -5 -44 -24 -63 -42 l-33 -32 0 32 0 32 -60 0 -60 0 0&#10;-220 0 -220 60 0 60 0 0 123 c0 173 26 217 128 217 l43 0 -3 58 c-3 63 -13 70&#10;-72 52z"/>
<path d="M5145 871 c-112 -29 -169 -107 -170 -231 0 -91 27 -148 93 -195 41&#10;-28 50 -30 131 -30 81 0 90 2 125 29 38 29 76 80 76 104 0 19 -99 16 -107 -3&#10;-8 -24 -57 -45 -101 -45 -29 0 -46 7 -66 26 -14 15 -26 32 -26 40 0 7 -3 19&#10;-6 28 -5 14 12 16 155 16 l161 0 0 44 c0 119 -75 206 -190 219 -25 3 -58 2&#10;-75 -2z m100 -97 c16 -6 45 -54 45 -74 0 -6 -37 -10 -101 -10 -99 0 -100 0&#10;-94 23 11 38 52 67 95 67 21 0 46 -3 55 -6z"/>
<path d="M2662 678 c3 -201 9 -223 69 -254 61 -31 180 -10 214 40 15 20 15 19&#10;15 -12 l0 -32 60 0 60 0 0 220 0 220 -65 0 -65 0 0 -149 c0 -144 -1 -151 -24&#10;-178 -19 -22 -32 -28 -65 -28 -71 0 -76 12 -79 195 l-3 160 -60 0 -61 0 4&#10;-182z"/>
<path d="M3950 715 c0 -239 24 -294 134 -303 69 -6 96 1 135 34 l31 26 0 -26&#10;c0 -25 2 -26 60 -26 l60 0 0 220 0 220 -60 0 -60 0 0 -137 c0 -112 -3 -145&#10;-18 -172 -29 -59 -105 -67 -139 -15 -14 21 -18 57 -21 175 l-4 149 -59 0 -59&#10;0 0 -145z"/>
<path d="M358 512 l-108 -187 51 -47 c60 -55 159 -109 244 -134 65 -19 249&#10;-24 265 -8 9 9 -320 556 -338 561 -4 1 -55 -82 -114 -185z"/>
<path d="M610 526 c0 -3 53 -89 118 -193 94 -149 122 -187 138 -185 38 6 140&#10;60 199 105 79 60 165 174 189 255 l7 22 -325 0 c-179 0 -326 -2 -326 -4z"/>
</g>
</svg>